<svg width="582" height="32" viewBox="0 0 582 32" fill="none" xmlns="http://www.w3.org/2000/svg">
<path d="M24.0044 16.4214C23.7236 4.26091 36.832 -4.28017 48.3373 2.39439C52.1276 4.59327 55.3452 7.84992 58.8049 11.4067C58.9621 11.5685 59.0348 11.5518 59.182 11.4015C64.5933 5.87916 72.4287 -2.54146 83.4035 0.734733C88.0222 2.11349 91.2316 5.14708 92.8759 9.71826C98.379 25.0172 82.5934 37.6835 69.0567 29.287C65.6425 27.1693 62.694 24.2472 59.2088 20.6538C59.0228 20.462 58.9389 20.4892 58.7687 20.6628C54.8092 24.705 50.547 29.0988 45.2825 30.9382C34.5696 34.6812 24.2998 28.2186 24.0044 16.4214ZM30.708 16.1857C31.0496 23.2101 36.387 26.4848 42.0739 25.2396C46.9886 24.1634 51.1114 19.7876 54.6229 16.1332C54.7412 16.0101 54.6749 15.9601 54.5936 15.8833C51.5437 13.0012 48.5652 9.48072 44.8114 7.66904C37.536 4.15777 30.6836 9.30716 30.708 16.1857ZM87.2774 15.8888C87.0612 9.10014 81.7708 5.40071 75.6746 6.84831C70.878 7.98728 66.7793 12.3424 63.3739 15.8845C63.2558 16.0074 63.3011 16.0648 63.398 16.1562C67.6557 20.1787 72.6801 26.5297 79.4684 25.3722C83.9902 24.6012 87.2875 20.6141 87.2774 15.8888Z" fill="#ACCDFF"/>
<path d="M118 0H124.643V32H118V0Z" fill="#ACCDFF"/>
<path d="M158.996 32H152.31L139.241 9.27001V32H133.01V0H140.022L152.766 22.3392V0H158.996V32Z" fill="#ACCDFF"/>
<path d="M190.158 5.66621H174.115V13.0258H188.161V18.5834H174.115V32H167.472V0.0434193H190.158V5.66621Z" fill="#ACCDFF"/>
<path d="M196.354 0H202.998V32H196.354V0Z" fill="#ACCDFF"/>
<path d="M237.351 32H230.664L217.595 9.27001V32H211.364V0H218.377L231.12 22.3392V0H237.351V32Z" fill="#ACCDFF"/>
<path d="M245.305 0H251.948V32H245.305V0Z" fill="#ACCDFF"/>
<path d="M283.675 0V5.66621H274.101V32H267.371V5.66621H257.754V0H283.675Z" fill="#ACCDFF"/>
<path d="M315.662 0L304.959 19.9729V32H298.272V19.9729L287.201 0H295.081L301.724 13.9376L308.085 0H315.662Z" fill="#ACCDFF"/>
<path d="M339.666 16.4214C339.386 4.26091 352.494 -4.28017 363.999 2.39439C367.789 4.59327 371.007 7.84992 374.467 11.4067C374.624 11.5685 374.697 11.5518 374.844 11.4015C380.255 5.87916 388.091 -2.54146 399.065 0.734733C403.684 2.11349 406.893 5.14708 408.538 9.71826C414.041 25.0172 398.255 37.6835 384.719 29.287C381.304 27.1693 378.356 24.2472 374.871 20.6538C374.685 20.462 374.601 20.4892 374.431 20.6628C370.471 24.705 366.209 29.0988 360.944 30.9382C350.231 34.6812 339.962 28.2186 339.666 16.4214ZM346.37 16.1857C346.711 23.2101 352.049 26.4848 357.736 25.2396C362.65 24.1634 366.773 19.7876 370.285 16.1332C370.403 16.0101 370.337 15.9601 370.255 15.8833C367.206 13.0012 364.227 9.48072 360.473 7.66904C353.198 4.15777 346.345 9.30716 346.37 16.1857ZM402.939 15.8888C402.723 9.10014 397.433 5.40071 391.336 6.84831C386.54 7.98728 382.441 12.3424 379.036 15.8845C378.918 16.0074 378.963 16.0648 379.06 16.1562C383.318 20.1787 388.342 26.5297 395.13 25.3722C399.652 24.6012 402.949 20.6141 402.939 15.8888Z" fill="#ACCDFF"/>
<path d="M445.752 19.3026H439.541V31.159H433.662V0.923077H447.783C449.801 0.964103 451.351 1.22393 452.431 1.70256C453.525 2.1812 454.45 2.88547 455.205 3.81538C455.83 4.5812 456.325 5.42906 456.689 6.35897C457.054 7.28889 457.236 8.34872 457.236 9.53846C457.236 10.9744 456.891 12.3897 456.201 13.7846C455.511 15.1658 454.372 16.1436 452.783 16.718C454.111 17.2786 455.049 18.0786 455.595 19.118C456.155 20.1436 456.435 21.7162 456.435 23.8359V25.8667C456.435 27.2479 456.487 28.1846 456.592 28.6769C456.748 29.4564 457.112 30.0308 457.685 30.4V31.159H451.064C450.882 30.4889 450.752 29.9487 450.674 29.5385C450.517 28.6906 450.433 27.8222 450.42 26.9333L450.381 24.1231C450.355 22.1949 450.016 20.9094 449.365 20.2667C448.727 19.6239 447.523 19.3026 445.752 19.3026ZM449.404 13.8051C450.602 13.2308 451.201 12.0957 451.201 10.4C451.201 8.56752 450.622 7.33675 449.463 6.70769C448.812 6.35214 447.835 6.17436 446.533 6.17436H439.541V14.2974H446.357C447.711 14.2974 448.727 14.1333 449.404 13.8051Z" fill="#ACCDFF"/>
<path d="M477.166 32C473.051 32 469.907 30.8239 467.732 28.4718C464.816 25.5863 463.357 21.4291 463.357 16C463.357 10.4615 464.816 6.30427 467.732 3.52821C469.907 1.17607 473.051 0 477.166 0C481.28 0 484.425 1.17607 486.599 3.52821C489.503 6.30427 490.955 10.4615 490.955 16C490.955 21.4291 489.503 25.5863 486.599 28.4718C484.425 30.8239 481.28 32 477.166 32ZM482.849 23.8769C484.243 22.0308 484.939 19.4051 484.939 16C484.939 12.6085 484.236 9.98974 482.83 8.14359C481.437 6.28376 479.549 5.35385 477.166 5.35385C474.783 5.35385 472.882 6.27692 471.463 8.12308C470.043 9.96923 469.334 12.5949 469.334 16C469.334 19.4051 470.043 22.0308 471.463 23.8769C472.882 25.7231 474.783 26.6462 477.166 26.6462C479.549 26.6462 481.443 25.7231 482.849 23.8769Z" fill="#ACCDFF"/>
<path d="M517.877 28.9026C515.728 30.9675 512.981 32 509.635 32C505.494 32 502.239 30.6051 499.869 27.8154C497.499 25.012 496.314 21.1692 496.314 16.2872C496.314 11.0085 497.662 6.94017 500.357 4.08205C502.701 1.59316 505.683 0.348718 509.302 0.348718C514.146 0.348718 517.688 2.01709 519.927 5.35385C521.164 7.22735 521.829 9.10769 521.92 10.9949H515.904C515.513 9.5453 515.012 8.45128 514.4 7.71282C513.306 6.4 511.685 5.74359 509.537 5.74359C507.349 5.74359 505.624 6.6735 504.361 8.53333C503.098 10.3795 502.467 12.9983 502.467 16.3897C502.467 19.7812 503.131 22.3248 504.459 24.0205C505.8 25.7026 507.499 26.5436 509.556 26.5436C511.666 26.5436 513.274 25.8188 514.381 24.3692C514.993 23.5897 515.5 22.4205 515.904 20.8615H521.861C521.34 24.1573 520.012 26.8376 517.877 28.9026Z" fill="#ACCDFF"/>
<path d="M553.978 31.159H546.244L537.357 17.9487L534.486 21.0462V31.159H528.568V0.923077H534.486V13.3744L545.599 0.923077H553.373L541.576 13.3744L553.978 31.159Z" fill="#ACCDFF"/>
<path d="M569.826 26.7897C571.245 26.7897 572.398 26.6256 573.283 26.2974C574.963 25.6684 575.802 24.4991 575.802 22.7897C575.802 21.7915 575.386 21.0188 574.552 20.4718C573.719 19.9385 572.411 19.4667 570.627 19.0564L567.58 18.3385C564.585 17.6274 562.515 16.8547 561.369 16.0205C559.429 14.6256 558.459 12.4444 558.459 9.47692C558.459 6.76923 559.396 4.51966 561.271 2.72821C563.146 0.936752 565.9 0.0410256 569.533 0.0410256C572.567 0.0410256 575.151 0.888889 577.287 2.58462C579.435 4.26667 580.562 6.71453 580.666 9.92821H574.885C574.78 8.1094 574.025 6.81709 572.619 6.05128C571.681 5.5453 570.516 5.29231 569.123 5.29231C567.573 5.29231 566.336 5.62051 565.412 6.27692C564.487 6.93333 564.025 7.84957 564.025 9.02564C564.025 10.106 564.481 10.9128 565.392 11.4462C565.978 11.8017 567.228 12.2188 569.142 12.6974L574.103 13.9487C576.278 14.4957 577.918 15.2274 579.025 16.1436C580.744 17.5658 581.603 19.6239 581.603 22.318C581.603 25.0803 580.594 27.3778 578.576 29.2103C576.571 31.0291 573.732 31.9385 570.06 31.9385C566.31 31.9385 563.361 31.0427 561.213 29.2513C559.064 27.4462 557.99 24.9709 557.99 21.8256H563.732C563.914 23.2068 564.273 24.2393 564.806 24.9231C565.783 26.1675 567.456 26.7897 569.826 26.7897Z" fill="#ACCDFF"/>
</svg>
